<svg xmlns="http://www.w3.org/2000/svg" viewBox="0 0 32 32" opacity=".5">
  <path fill="none" stroke="#000" stroke-width="0.0625" d="
    M0 1 h32
    m-32 1 h32
    m-32 1 h32
    m-32 1 h32
    m-32 1 h32
    m-32 1 h32
    m-32 1 h32
    m-32 1 h32
    m-32 1 h32
    m-32 1 h32
    m-32 1 h32
    m-32 1 h32
    m-32 1 h32
    m-32 1 h32
    m-32 1 h32
    m-32 1 h32
    m-32 1 h32
    m-32 1 h32
    m-32 1 h32
    m-32 1 h32
    m-32 1 h32
    m-32 1 h32
    m-32 1 h32
    m-32 1 h32
    m-32 1 h32
    m-32 1 h32
    m-32 1 h32
    m-32 1 h32
    m-32 1 h32
    m-32 1 h32
    m-32 1 h32
    m-32 1 h32

    M1 0 v32
    m1 -32 v32
    m1 -32 v32
    m1 -32 v32
    m1 -32 v32
    m1 -32 v32
    m1 -32 v32
    m1 -32 v32
    m1 -32 v32
    m1 -32 v32
    m1 -32 v32
    m1 -32 v32
    m1 -32 v32
    m1 -32 v32
    m1 -32 v32
    m1 -32 v32
    m1 -32 v32
    m1 -32 v32
    m1 -32 v32
    m1 -32 v32
    m1 -32 v32
    m1 -32 v32
    m1 -32 v32
    m1 -32 v32
    m1 -32 v32
    m1 -32 v32
    m1 -32 v32
    m1 -32 v32
    m1 -32 v32
    m1 -32 v32
    m1 -32 v32
    m1 -32 v32
  "/>
  <path fill="none" stroke="#000" stroke-width="0.125" d="
    M0 0.125 h32
    M0 4 h32
    m-32 4 h32
    m-32 4 h32
    m-32 4 h32
    m-32 4 h32
    m-32 4 h32
    m-32 4 h32
    M0 31.875 h32
    M0.125 0 v32
    M4 0 v32
    m4 -32 v32
    m4 -32 v32
    m4 -32 v32
    m4 -32 v32
    m4 -32 v32
    m4 -32 v32
    M31.875 0 v32
  "/>
</svg>
